<?xml version="1.0" encoding="UTF-8"?>
<svg xmlns="http://www.w3.org/2000/svg" xmlns:xlink="http://www.w3.org/1999/xlink" width="200px" height="100px" viewBox="0 0 200 100" version="1.1">
<g id="surface1">
<path style=" stroke:none;fill-rule:nonzero;fill:rgb(1.960784%,1.960784%,1.960784%);fill-opacity:1;" d="M 3.109375 56.789062 L 3.109375 50.210938 L 1.777344 50.210938 L 1.429688 51.539062 L 0.140625 51.539062 L 0.140625 48.53125 L 8.261719 48.53125 L 8.261719 51.539062 L 6.957031 51.539062 L 6.609375 50.210938 L 5.277344 50.210938 L 5.277344 56.789062 L 6.609375 57.210938 L 6.609375 58.398438 L 1.777344 58.398438 L 1.777344 57.210938 Z M 12.804688 50.839844 L 12.929688 51.804688 C 12.929688 51.804688 13.9375 50.699219 14.875 50.699219 C 15.644531 50.699219 16.175781 50.953125 16.175781 50.953125 L 16.066406 53.640625 L 14.804688 53.640625 L 14.59375 52.449219 C 13.78125 52.449219 13.082031 53.234375 13.082031 53.234375 L 13.082031 56.929688 L 14.484375 57.28125 L 14.484375 58.398438 L 9.863281 58.398438 L 9.863281 57.28125 L 10.984375 56.929688 L 10.984375 52.378906 L 9.863281 52.03125 L 9.863281 50.910156 Z M 22.484375 58.398438 L 22.230469 57.488281 C 22.230469 57.488281 21.152344 58.539062 19.964844 58.539062 C 18.605469 58.539062 17.78125 57.742188 17.78125 56.34375 C 17.78125 54.691406 19.027344 54.03125 21.152344 54.03125 L 22.132812 54.03125 L 22.132812 53.261719 C 22.132812 52.546875 21.757812 52.238281 21.054688 52.238281 C 20.34375 52.238281 19.824219 52.449219 19.824219 52.449219 L 19.613281 53.332031 L 18.355469 53.332031 L 18.257812 51.261719 C 18.257812 51.261719 19.949219 50.699219 21.292969 50.699219 C 23.421875 50.699219 24.234375 51.441406 24.234375 53.472656 L 24.234375 56.929688 L 25.285156 57.183594 L 25.285156 58.300781 Z M 22.132812 55.222656 L 21.335938 55.222656 C 20.246094 55.222656 19.808594 55.503906 19.808594 56.132812 C 19.808594 56.664062 20.105469 56.972656 20.636719 56.972656 C 21.378906 56.972656 22.132812 56.160156 22.132812 56.160156 Z M 31.253906 52.03125 L 31.253906 50.910156 L 34.921875 50.839844 L 34.921875 52.03125 L 34.125 52.210938 L 31.871094 58.398438 L 29.5625 58.398438 L 27.347656 52.253906 L 26.675781 52.03125 L 26.675781 50.910156 L 30.34375 50.839844 L 30.34375 52.03125 L 29.5625 52.171875 L 30.835938 56.300781 L 32.066406 52.210938 Z M 43.289062 55.082031 L 38.640625 55.082031 C 38.722656 56.203125 39.367188 56.859375 40.335938 56.859375 C 41.496094 56.859375 42.6875 56.203125 42.6875 56.203125 L 43.289062 57.363281 C 43.289062 57.363281 41.886719 58.539062 40.097656 58.539062 C 37.6875 58.539062 36.457031 57.140625 36.457031 54.761719 C 36.457031 52.308594 37.84375 50.699219 40.195312 50.699219 C 42.28125 50.699219 43.371094 51.988281 43.371094 53.988281 C 43.371094 54.523438 43.289062 55.039062 43.289062 55.082031 Z M 38.667969 53.78125 L 41.203125 53.78125 C 41.203125 52.980469 40.867188 52.378906 40.054688 52.378906 C 39.269531 52.378906 38.78125 52.953125 38.667969 53.78125 Z M 48.351562 56.929688 L 49.609375 57.28125 L 49.609375 58.398438 L 45.117188 58.398438 L 45.117188 57.28125 L 46.234375 56.929688 L 46.234375 49.0625 L 45.117188 48.78125 L 45.117188 47.660156 L 48.351562 47.550781 Z M 48.351562 56.929688 "/>
<path style=" stroke:none;fill-rule:nonzero;fill:rgb(25.882353%,80%,85.882353%);fill-opacity:1;" d="M 53.488281 58.398438 L 53.488281 57.210938 L 54.539062 56.789062 L 54.539062 50.210938 L 53.488281 49.789062 L 53.488281 48.601562 L 57.101562 48.53125 L 59.203125 53.191406 L 61.398438 48.601562 L 64.761719 48.53125 L 64.761719 49.789062 L 63.753906 50.210938 L 63.753906 56.789062 L 64.800781 57.210938 L 64.800781 58.398438 L 60.628906 58.398438 L 60.628906 57.210938 L 61.722656 56.789062 L 61.722656 51.527344 L 61.34375 52.449219 L 59.761719 55.738281 L 58.25 55.808594 L 56.640625 52.492188 L 56.402344 51.765625 L 56.402344 56.789062 L 57.480469 57.210938 L 57.480469 58.398438 Z M 71.527344 58.398438 L 71.277344 57.488281 C 71.277344 57.488281 70.199219 58.539062 69.007812 58.539062 C 67.652344 58.539062 66.824219 57.742188 66.824219 56.34375 C 66.824219 54.691406 68.070312 54.03125 70.199219 54.03125 L 71.179688 54.03125 L 71.179688 53.261719 C 71.179688 52.546875 70.800781 52.238281 70.101562 52.238281 C 69.386719 52.238281 68.867188 52.449219 68.867188 52.449219 L 68.660156 53.332031 L 67.398438 53.332031 L 67.300781 51.261719 C 67.300781 51.261719 68.996094 50.699219 70.339844 50.699219 C 72.46875 50.699219 73.277344 51.441406 73.277344 53.472656 L 73.277344 56.929688 L 74.328125 57.183594 L 74.328125 58.300781 Z M 71.179688 55.222656 L 70.382812 55.222656 C 69.289062 55.222656 68.855469 55.503906 68.855469 56.132812 C 68.855469 56.664062 69.148438 56.972656 69.679688 56.972656 C 70.421875 56.972656 71.179688 56.160156 71.179688 56.160156 Z M 79.109375 50.839844 L 79.207031 51.804688 C 79.207031 51.804688 80.539062 50.726562 81.785156 50.726562 C 83.140625 50.726562 83.914062 51.695312 83.914062 53.21875 L 83.914062 56.929688 L 84.890625 57.28125 L 84.890625 58.398438 L 81.042969 58.398438 L 81.042969 57.28125 L 81.8125 56.929688 L 81.8125 53.597656 C 81.8125 52.953125 81.449219 52.476562 80.859375 52.476562 C 79.992188 52.476562 79.363281 53.277344 79.363281 53.277344 L 79.363281 56.929688 L 80.132812 57.28125 L 80.132812 58.398438 L 76.140625 58.398438 L 76.140625 57.28125 L 77.261719 56.929688 L 77.261719 52.378906 L 76.140625 52.03125 L 76.140625 50.910156 Z M 87.574219 48.53125 C 87.574219 47.730469 88.148438 47.269531 88.777344 47.269531 C 89.503906 47.269531 89.953125 47.648438 89.953125 48.53125 C 89.953125 49.355469 89.351562 49.804688 88.777344 49.804688 C 88.019531 49.804688 87.574219 49.355469 87.574219 48.53125 Z M 89.925781 56.929688 L 90.90625 57.28125 L 90.90625 58.398438 L 86.707031 58.398438 L 86.707031 57.28125 L 87.824219 56.929688 L 87.824219 52.378906 L 86.707031 52.03125 L 86.707031 50.910156 L 89.925781 50.839844 Z M 97.5625 58.398438 L 97.3125 57.488281 C 97.3125 57.488281 96.234375 58.539062 95.042969 58.539062 C 93.683594 58.539062 92.859375 57.742188 92.859375 56.34375 C 92.859375 54.691406 94.105469 54.03125 96.234375 54.03125 L 97.210938 54.03125 L 97.210938 53.261719 C 97.210938 52.546875 96.835938 52.238281 96.132812 52.238281 C 95.421875 52.238281 94.902344 52.449219 94.902344 52.449219 L 94.691406 53.332031 L 93.433594 53.332031 L 93.335938 51.261719 C 93.335938 51.261719 95.027344 50.699219 96.371094 50.699219 C 98.5 50.699219 99.3125 51.441406 99.3125 53.472656 L 99.3125 56.929688 L 100.363281 57.183594 L 100.363281 58.300781 Z M 97.210938 55.222656 L 96.414062 55.222656 C 95.324219 55.222656 94.886719 55.503906 94.886719 56.132812 C 94.886719 56.664062 95.183594 56.972656 95.714844 56.972656 C 96.457031 56.972656 97.210938 56.160156 97.210938 56.160156 Z M 97.210938 55.222656 "/>
</g>
</svg>
