<?xml version="1.0" encoding="UTF-8"?>
<svg xmlns="http://www.w3.org/2000/svg" xmlns:xlink="http://www.w3.org/1999/xlink" width="60px" height="30px" viewBox="0 0 60 30" version="1.1">
<g id="surface1">
<path style=" stroke:none;fill-rule:nonzero;fill:rgb(1.960784%,1.960784%,1.960784%);fill-opacity:1;" d="M 0.933594 17.035156 L 0.933594 15.0625 L 0.535156 15.0625 L 0.429688 15.460938 L 0.0429688 15.460938 L 0.0429688 14.558594 L 2.476562 14.558594 L 2.476562 15.460938 L 2.085938 15.460938 L 1.980469 15.0625 L 1.582031 15.0625 L 1.582031 17.035156 L 1.980469 17.164062 L 1.980469 17.519531 L 0.535156 17.519531 L 0.535156 17.164062 Z M 3.839844 15.253906 L 3.878906 15.542969 C 3.878906 15.542969 4.179688 15.210938 4.460938 15.210938 C 4.695312 15.210938 4.851562 15.285156 4.851562 15.285156 L 4.820312 16.09375 L 4.441406 16.09375 L 4.378906 15.734375 C 4.136719 15.734375 3.925781 15.96875 3.925781 15.96875 L 3.925781 17.078125 L 4.34375 17.183594 L 4.34375 17.519531 L 2.957031 17.519531 L 2.957031 17.183594 L 3.296875 17.078125 L 3.296875 15.714844 L 2.957031 15.609375 L 2.957031 15.273438 Z M 6.746094 17.519531 L 6.667969 17.246094 C 6.667969 17.246094 6.347656 17.5625 5.988281 17.5625 C 5.582031 17.5625 5.335938 17.324219 5.335938 16.902344 C 5.335938 16.40625 5.707031 16.210938 6.347656 16.210938 L 6.640625 16.210938 L 6.640625 15.980469 C 6.640625 15.765625 6.527344 15.671875 6.316406 15.671875 C 6.101562 15.671875 5.949219 15.734375 5.949219 15.734375 L 5.882812 16 L 5.507812 16 L 5.476562 15.378906 C 5.476562 15.378906 5.984375 15.210938 6.386719 15.210938 C 7.027344 15.210938 7.269531 15.433594 7.269531 16.042969 L 7.269531 17.078125 L 7.585938 17.15625 L 7.585938 17.492188 Z M 6.640625 16.566406 L 6.402344 16.566406 C 6.074219 16.566406 5.941406 16.652344 5.941406 16.839844 C 5.941406 17 6.03125 17.089844 6.191406 17.089844 C 6.414062 17.089844 6.640625 16.847656 6.640625 16.847656 Z M 9.375 15.609375 L 9.375 15.273438 L 10.476562 15.253906 L 10.476562 15.609375 L 10.238281 15.664062 L 9.5625 17.519531 L 8.867188 17.519531 L 8.203125 15.675781 L 8.003906 15.609375 L 8.003906 15.273438 L 9.105469 15.253906 L 9.105469 15.609375 L 8.867188 15.652344 L 9.25 16.890625 L 9.621094 15.664062 Z M 12.988281 16.523438 L 11.59375 16.523438 C 11.617188 16.859375 11.8125 17.058594 12.101562 17.058594 C 12.449219 17.058594 12.804688 16.859375 12.804688 16.859375 L 12.988281 17.210938 C 12.988281 17.210938 12.566406 17.5625 12.027344 17.5625 C 11.304688 17.5625 10.9375 17.140625 10.9375 16.429688 C 10.9375 15.691406 11.351562 15.210938 12.058594 15.210938 C 12.683594 15.210938 13.011719 15.597656 13.011719 16.195312 C 13.011719 16.355469 12.988281 16.511719 12.988281 16.523438 Z M 11.601562 16.132812 L 12.359375 16.132812 C 12.359375 15.894531 12.261719 15.714844 12.015625 15.714844 C 11.78125 15.714844 11.632812 15.886719 11.601562 16.132812 Z M 14.503906 17.078125 L 14.882812 17.183594 L 14.882812 17.519531 L 13.535156 17.519531 L 13.535156 17.183594 L 13.871094 17.078125 L 13.871094 14.71875 L 13.535156 14.632812 L 13.535156 14.296875 L 14.503906 14.265625 Z M 14.503906 17.078125 "/>
<path style=" stroke:none;fill-rule:nonzero;fill:rgb(25.882353%,80%,85.882353%);fill-opacity:1;" d="M 16.046875 17.519531 L 16.046875 17.164062 L 16.363281 17.035156 L 16.363281 15.0625 L 16.046875 14.9375 L 16.046875 14.578125 L 17.128906 14.558594 L 17.761719 15.957031 L 18.421875 14.578125 L 19.429688 14.558594 L 19.429688 14.9375 L 19.125 15.0625 L 19.125 17.035156 L 19.441406 17.164062 L 19.441406 17.519531 L 18.1875 17.519531 L 18.1875 17.164062 L 18.515625 17.035156 L 18.515625 15.457031 L 18.402344 15.734375 L 17.929688 16.722656 L 17.476562 16.742188 L 16.992188 15.746094 L 16.921875 15.527344 L 16.921875 17.035156 L 17.242188 17.164062 L 17.242188 17.519531 Z M 21.457031 17.519531 L 21.382812 17.246094 C 21.382812 17.246094 21.058594 17.5625 20.703125 17.5625 C 20.296875 17.5625 20.046875 17.324219 20.046875 16.902344 C 20.046875 16.40625 20.421875 16.210938 21.058594 16.210938 L 21.355469 16.210938 L 21.355469 15.980469 C 21.355469 15.765625 21.242188 15.671875 21.03125 15.671875 C 20.816406 15.671875 20.660156 15.734375 20.660156 15.734375 L 20.597656 16 L 20.21875 16 L 20.191406 15.378906 C 20.191406 15.378906 20.699219 15.210938 21.101562 15.210938 C 21.738281 15.210938 21.984375 15.433594 21.984375 16.042969 L 21.984375 17.078125 L 22.296875 17.15625 L 22.296875 17.492188 Z M 21.355469 16.566406 L 21.113281 16.566406 C 20.785156 16.566406 20.65625 16.652344 20.65625 16.839844 C 20.65625 17 20.746094 17.089844 20.90625 17.089844 C 21.125 17.089844 21.355469 16.847656 21.355469 16.847656 Z M 23.734375 15.253906 L 23.761719 15.542969 C 23.761719 15.542969 24.160156 15.21875 24.535156 15.21875 C 24.941406 15.21875 25.171875 15.507812 25.171875 15.964844 L 25.171875 17.078125 L 25.46875 17.183594 L 25.46875 17.519531 L 24.3125 17.519531 L 24.3125 17.183594 L 24.542969 17.078125 L 24.542969 16.078125 C 24.542969 15.886719 24.433594 15.742188 24.257812 15.742188 C 23.996094 15.742188 23.808594 15.984375 23.808594 15.984375 L 23.808594 17.078125 L 24.039062 17.183594 L 24.039062 17.519531 L 22.84375 17.519531 L 22.84375 17.183594 L 23.179688 17.078125 L 23.179688 15.714844 L 22.84375 15.609375 L 22.84375 15.273438 Z M 26.273438 14.558594 C 26.273438 14.320312 26.445312 14.179688 26.632812 14.179688 C 26.851562 14.179688 26.984375 14.292969 26.984375 14.558594 C 26.984375 14.808594 26.804688 14.941406 26.632812 14.941406 C 26.40625 14.941406 26.273438 14.808594 26.273438 14.558594 Z M 26.976562 17.078125 L 27.273438 17.183594 L 27.273438 17.519531 L 26.011719 17.519531 L 26.011719 17.183594 L 26.347656 17.078125 L 26.347656 15.714844 L 26.011719 15.609375 L 26.011719 15.273438 L 26.976562 15.253906 Z M 29.269531 17.519531 L 29.191406 17.246094 C 29.191406 17.246094 28.871094 17.5625 28.511719 17.5625 C 28.105469 17.5625 27.859375 17.324219 27.859375 16.902344 C 27.859375 16.40625 28.230469 16.210938 28.871094 16.210938 L 29.164062 16.210938 L 29.164062 15.980469 C 29.164062 15.765625 29.050781 15.671875 28.839844 15.671875 C 28.625 15.671875 28.472656 15.734375 28.472656 15.734375 L 28.40625 16 L 28.03125 16 L 28 15.378906 C 28 15.378906 28.507812 15.210938 28.910156 15.210938 C 29.550781 15.210938 29.792969 15.433594 29.792969 16.042969 L 29.792969 17.078125 L 30.109375 17.15625 L 30.109375 17.492188 Z M 29.164062 16.566406 L 28.925781 16.566406 C 28.597656 16.566406 28.464844 16.652344 28.464844 16.839844 C 28.464844 17 28.554688 17.089844 28.714844 17.089844 C 28.9375 17.089844 29.164062 16.847656 29.164062 16.847656 Z M 29.164062 16.566406 "/>
</g>
</svg>
