<svg xmlns="http://www.w3.org/2000/svg" width="400" height="200" xmlns:v="https://vecta.io/nano"><path fill="#050505" d="M6.216 113.58v-13.16h-2.66l-.7 2.66H.28v-6.02h16.24v6.02h-2.604l-.7-2.66h-2.66v13.16l2.66.84v2.38h-9.66v-2.38zm19.39-11.9l.252 1.932s2.016-2.212 3.892-2.212c1.54 0 2.604.504 2.604.504l-.224 5.376h-2.52l-.42-2.38c-1.624 0-3.024 1.568-3.024 1.568v7.392l2.8.7v2.24h-9.24v-2.24l2.24-.7v-9.1l-2.24-.7v-2.24zm19.362 15.12l-.504-1.82s-2.156 2.1-4.536 2.1c-2.716 0-4.368-1.596-4.368-4.396 0-3.304 2.492-4.62 6.748-4.62h1.96v-1.54c0-1.428-.756-2.044-2.156-2.044-1.428 0-2.464.42-2.464.42l-.42 1.764h-2.52l-.196-4.144s3.388-1.12 6.076-1.12c4.256 0 5.88 1.484 5.88 5.544v6.916l2.1.504v2.24zm-.7-6.356h-1.596c-2.184 0-3.052.56-3.052 1.82 0 1.064.588 1.68 1.652 1.68 1.484 0 2.996-1.624 2.996-1.624v-1.876zm18.242-6.384v-2.24l7.336-.14v2.38l-1.596.364-4.508 12.376h-4.62l-4.424-12.292-1.344-.448v-2.24l7.336-.14v2.38l-1.568.28 2.548 8.26 2.464-8.176zm24.066 6.104h-9.296c.168 2.24 1.456 3.556 3.388 3.556 2.324 0 4.704-1.316 4.704-1.316l1.204 2.324s-2.8 2.352-6.384 2.352c-4.816 0-7.28-2.8-7.28-7.56 0-4.9 2.772-8.12 7.476-8.12 4.172 0 6.356 2.576 6.356 6.58 0 1.064-.168 2.1-.168 2.184zm-9.24-2.604h5.068c0-1.596-.672-2.8-2.296-2.8-1.568 0-2.548 1.148-2.772 2.8zm19.362 6.3l2.52.7v2.24h-8.988v-2.24l2.24-.7V98.124l-2.24-.56v-2.24l6.468-.224v18.76z"/><path fill="#42ccdb" d="M106.98 116.8v-2.38l2.1-.84v-13.16l-2.1-.84V97.2l7.224-.14 4.2 9.324L122.8 97.2l6.72-.14v2.52l-2.016.84v13.16l2.1.84v2.38h-8.344v-2.38l2.184-.84v-10.528l-.756 1.848-3.164 6.58-3.024.14-3.22-6.636-.476-1.456v10.052l2.156.84v2.38h-7.98zm36.078 0l-.504-1.82s-2.156 2.1-4.536 2.1c-2.716 0-4.368-1.596-4.368-4.396 0-3.304 2.492-4.62 6.748-4.62h1.96v-1.54c0-1.428-.756-2.044-2.156-2.044-1.428 0-2.464.42-2.464.42l-.42 1.764h-2.52l-.196-4.144s3.388-1.12 6.076-1.12c4.256 0 5.88 1.484 5.88 5.544v6.916l2.1.504v2.24zm-.7-6.356h-1.596c-2.184 0-3.052.56-3.052 1.82 0 1.064.588 1.68 1.652 1.68 1.484 0 2.996-1.624 2.996-1.624v-1.876zm15.862-8.764l.196 1.932s2.66-2.156 5.152-2.156c2.716 0 4.256 1.932 4.256 4.984v7.42l1.96.7v2.24h-7.7v-2.24l1.54-.7v-6.664c0-1.288-.728-2.24-1.904-2.24-1.736 0-2.996 1.596-2.996 1.596v7.308l1.54.7v2.24h-7.98v-2.24l2.24-.7v-9.1l-2.24-.7v-2.24zm16.926-4.62c0-1.596 1.148-2.52 2.408-2.52 1.456 0 2.352.756 2.352 2.52 0 1.652-1.204 2.548-2.352 2.548-1.512 0-2.408-.896-2.408-2.548zm4.704 16.8l1.96.7v2.24h-8.4v-2.24l2.24-.7v-9.1l-2.24-.7v-2.24l6.44-.14v12.18zm15.274 2.94l-.504-1.82s-2.156 2.1-4.536 2.1c-2.716 0-4.368-1.596-4.368-4.396 0-3.304 2.492-4.62 6.748-4.62h1.96v-1.54c0-1.428-.756-2.044-2.156-2.044-1.428 0-2.464.42-2.464.42l-.42 1.764h-2.52l-.196-4.144s3.388-1.12 6.076-1.12c4.256 0 5.88 1.484 5.88 5.544v6.916l2.1.504v2.24zm-.7-6.356h-1.596c-2.184 0-3.052.56-3.052 1.82 0 1.064.588 1.68 1.652 1.68 1.484 0 2.996-1.624 2.996-1.624v-1.876z"/></svg>